<svg width="68" height="28" viewBox="0 0 68 28" fill="none" xmlns="http://www.w3.org/2000/svg">
<g id="Group 6766">
<path id="Vector" d="M44.1866 23.7821C44.7894 22.5907 44.4254 21.2581 43.3714 20.8125C42.6208 20.4943 41.7246 20.7197 41.0513 21.3035C39.0292 19.5129 36.5585 18.2258 34.2118 17.3096C37.6481 17.4672 41.0914 17.4078 44.5206 17.1317C44.5562 17.1714 44.597 17.2063 44.6419 17.2354C46.8287 18.4786 49.0897 19.5898 51.4124 20.5628C56.4434 22.6492 60.1894 23.2689 62.5407 22.405C63.4047 22.0879 63.8153 21.6466 63.7708 21.091C63.7076 20.2943 62.9025 19.3013 54.159 17.6049C52.9631 17.373 51.767 17.1586 50.6505 16.9667C51.9336 16.8934 53.475 16.7717 55.0819 16.5672C60.6381 15.862 64.2635 14.5569 65.8518 12.6874C66.4406 12.0027 66.558 11.4322 66.2174 10.9886C65.7286 10.352 64.4856 9.91064 55.8832 12.7531C52.6508 13.8202 49.4745 14.9987 47.9943 15.5576C46.8352 15.6956 45.6867 15.8017 44.5425 15.8963C48.038 14.39 51.1781 12.1786 53.7619 9.40356C54.0945 9.59164 54.4648 9.70514 54.8467 9.73603C55.1473 9.76262 55.4502 9.72534 55.7351 9.62669C56.0201 9.52804 56.2806 9.37029 56.499 9.16402C56.7037 8.95775 56.8581 8.70804 56.9505 8.43391C57.0429 8.15979 57.0708 7.86849 57.0322 7.58222C56.9527 7.00468 56.6673 6.47447 56.2276 6.08707C55.7843 5.68051 55.2154 5.43374 54.6125 5.38653C54.3121 5.36045 54.0095 5.39808 53.7248 5.49692C53.4401 5.59576 53.1799 5.75354 52.9615 5.95971C52.7553 6.16513 52.5993 6.41461 52.5058 6.68893C52.4123 6.96324 52.3836 7.25506 52.4221 7.5419C52.4432 7.71241 52.4837 7.88 52.5427 8.04152C52.6125 8.22873 52.7054 8.4067 52.8191 8.57145C47.2317 14.6393 40.064 16.1064 39.9581 16.128C39.943 16.1289 39.9324 16.1408 39.9174 16.1442C37.7948 16.1958 35.7106 16.1551 33.6593 16.0324C38.8598 14.4974 48.6013 11.0922 50.8088 6.58396C51.2503 5.6823 51.2178 5.03609 50.7325 4.66023C50.0396 4.13238 48.6994 4.44524 46.0896 5.74104C44.3261 6.61845 42.0161 7.94439 39.2216 9.68254C34.9139 12.3625 30.7607 15.2141 30.0028 15.7369C29.1149 15.6404 28.2348 15.5284 27.3626 15.4009C26.9286 15.3241 26.5973 15.2734 26.3859 15.2441C22.6076 14.6347 18.8972 13.6693 15.3055 12.361C18.316 12.5404 22.7438 12.2061 27.2638 9.77277C27.86 10.4103 28.7469 10.6863 29.5531 10.3941C30.6644 9.99296 31.1952 8.6786 30.7476 7.46607C30.3001 6.25355 29.0346 5.59131 27.9283 5.99209C26.8913 6.3686 26.367 7.54392 26.6717 8.69285C22.3759 11.0149 18.1509 11.3029 15.3347 11.1215C12.3161 10.9338 10.2501 10.1875 10.0434 10.1104C4.14822 7.17834 1.21348 4.24893 1.18114 4.21596C1.05763 4.09746 0.892998 4.03016 0.720863 4.02783C0.548736 4.0255 0.382119 4.0883 0.255061 4.2034C0.160218 4.28403 0.0921139 4.39105 0.0596513 4.51049C0.0271964 4.62993 0.031881 4.75623 0.0731033 4.8729C0.10385 4.95078 0.151275 5.02112 0.212115 5.07911C0.337397 5.20624 2.76866 7.62978 7.67238 10.3098C9.59618 12.8514 11.6733 15.2757 13.8925 17.5695C18.6924 22.4866 22.6326 24.9166 25.6015 24.7913C26.2827 24.7629 27.1444 24.5708 27.3757 23.8221C27.5659 23.2045 27.3878 22.2651 24.6124 19.9728C23.0876 18.7108 20.9101 17.1446 18.1384 15.318C17.4411 14.8616 16.7425 14.4053 16.0551 13.967C19.2489 15.0484 22.527 15.8696 25.8568 16.4222C25.8811 16.4301 25.906 16.4365 25.9312 16.4413C25.9387 16.4409 26.0253 16.453 26.1744 16.475C26.4217 16.5146 26.6669 16.5606 26.9154 16.5977C26.933 16.5966 26.9536 16.6028 26.9714 16.6054C29.514 17.0561 36.1002 18.5503 40.2916 22.366C40.05 22.9138 40.0212 23.5303 40.2108 24.0972C40.292 24.3272 40.4203 24.5381 40.5878 24.7166C40.7552 24.8951 40.9582 25.0375 41.184 25.1347C41.4629 25.2444 41.7625 25.2933 42.0624 25.2779C42.3623 25.2626 42.6555 25.1834 42.9218 25.0458C43.4709 24.7718 43.915 24.3281 44.1866 23.7821ZM53.733 7.34825C53.7165 7.24998 53.7227 7.14927 53.7511 7.05364C53.7795 6.95801 53.8294 6.86994 53.897 6.79603C53.9757 6.72865 54.0676 6.67806 54.1669 6.6474C54.2662 6.61675 54.3709 6.6067 54.4742 6.61787C54.7867 6.64802 55.0803 6.77957 55.3091 6.99205C55.474 7.13919 55.6009 7.32315 55.6794 7.52865C55.708 7.60491 55.7277 7.68414 55.7382 7.76482C55.7543 7.86319 55.7478 7.96391 55.7192 8.05952C55.6906 8.15512 55.6406 8.24317 55.573 8.31712C55.494 8.3839 55.4019 8.43368 55.3024 8.46328C55.203 8.49289 55.0984 8.50166 54.9954 8.48905C54.6833 8.4588 54.3902 8.32722 54.1618 8.1148C53.9333 7.91634 53.7817 7.64536 53.733 7.34825ZM46.2536 7.04357C48.6051 5.83747 49.5006 5.66207 49.8042 5.65076C49.7635 5.80532 49.7059 5.95505 49.6324 6.0973C48.5319 8.34375 44.8376 10.7159 38.9485 12.9556C37.0566 13.6749 35.2153 14.2736 33.7072 14.728C35.3315 13.6431 37.4301 12.2653 39.586 10.9177C42.2705 9.23882 44.5138 7.93575 46.2536 7.04357ZM28.3606 7.14186C28.7767 6.99118 29.3046 7.34191 29.514 7.90847C29.7233 8.47504 29.5474 9.08046 29.1314 9.23114C28.7153 9.38182 28.1873 9.03109 27.9793 8.46445C27.7712 7.89781 27.9446 7.29254 28.3606 7.14186ZM53.4277 18.7393C60.0578 20.0046 61.843 20.8233 62.3235 21.162C62.2671 21.1892 62.2008 21.2183 62.1081 21.2515C60.1259 21.9801 56.6254 21.3489 51.9858 19.4269C50.7614 18.9195 49.6046 18.3817 48.6083 17.8876C50.0305 18.1255 51.7237 18.4152 53.4277 18.7393ZM55.863 14.0558C62.3711 11.8864 64.3833 11.703 64.9885 11.753C64.9537 11.8026 64.9082 11.8616 64.8482 11.9328C63.5059 13.5148 60.0955 14.6853 54.9716 15.3363C53.6201 15.5075 52.3133 15.6259 51.1752 15.6964C52.5493 15.1966 54.1897 14.6166 55.863 14.0558ZM17.1544 16.2045C24.7265 21.1822 25.9021 22.9192 26.0818 23.3952C26.092 23.421 26.1 23.4477 26.1057 23.4749C25.9395 23.5275 25.7662 23.5542 25.5918 23.5542C23.0535 23.6615 19.3497 21.2981 14.879 16.724C13.3344 15.1435 11.9452 13.5447 10.8783 12.2582C12.6185 13.3082 14.8963 14.7208 17.1544 16.2045ZM41.76 23.9999C41.3633 23.8321 41.2674 23.2211 41.551 22.6639C41.8346 22.1068 42.4039 21.7805 42.7993 21.9484C42.8738 21.9826 42.9401 22.0319 42.9942 22.0931C43.0482 22.1543 43.0886 22.226 43.1129 22.3036C43.1249 22.3361 43.135 22.3693 43.143 22.4029C43.2016 22.7034 43.1546 23.0148 43.0096 23.2855C42.7271 23.8388 42.1541 24.1678 41.76 23.9999Z" fill="#C89F63"/>
</g>
</svg>
