<svg width="67" height="23" viewBox="0 0 67 23" fill="none" xmlns="http://www.w3.org/2000/svg">
<path d="M44.1869 20.7313C44.7897 19.5399 44.4256 18.2073 43.3717 17.7617C42.6211 17.4436 41.7249 17.6689 41.0516 18.2527C39.0294 16.4621 36.5587 15.1751 34.212 14.2588C37.6484 14.4164 41.0916 14.357 44.5208 14.0809C44.5564 14.1207 44.5972 14.1555 44.6421 14.1846C46.829 15.4278 49.0899 16.539 51.4126 17.512C56.4437 19.5984 60.1896 20.2181 62.5409 19.3542C63.4049 19.0371 63.8156 18.5958 63.7711 18.0402C63.7078 17.2435 62.9028 16.2505 54.1593 14.5541C52.9633 14.3222 51.7672 14.1078 50.6508 13.9159C51.9338 13.8427 53.4752 13.7209 55.0822 13.5164C60.6383 12.8112 64.2637 11.5062 65.8521 9.63666C66.4408 8.95195 66.5582 8.38138 66.2177 7.93785C65.7288 7.30118 64.4858 6.85986 55.8835 9.7023C52.651 10.7694 49.4747 11.9479 47.9945 12.5068C46.8354 12.6448 45.6869 12.7509 44.5428 12.8456C48.0383 11.3392 51.1784 9.12779 53.7622 6.35278C54.0947 6.54086 54.465 6.65436 54.847 6.68525C55.1475 6.71184 55.4504 6.67456 55.7354 6.57591C56.0204 6.47726 56.2808 6.31951 56.4993 6.11324C56.7039 5.90697 56.8583 5.65725 56.9507 5.38313C57.0431 5.10901 57.0711 4.81771 57.0325 4.53144C56.9529 3.9539 56.6676 3.42369 56.2278 3.03629C55.7846 2.62973 55.2156 2.38295 54.6128 2.33575C54.3124 2.30967 54.0097 2.3473 53.725 2.44614C53.4403 2.54498 53.1801 2.70276 52.9618 2.90893C52.7555 3.11434 52.5996 3.36383 52.5061 3.63814C52.4125 3.91246 52.3839 4.20428 52.4223 4.49111C52.4435 4.66162 52.4839 4.82922 52.5429 4.99074C52.6128 5.17795 52.7056 5.35592 52.8194 5.52067C47.232 11.5886 40.0643 13.0556 39.9583 13.0772C39.9432 13.0781 39.9326 13.09 39.9177 13.0934C37.795 13.145 35.7109 13.1043 33.6595 12.9816C38.86 11.4466 48.6015 8.04146 50.809 3.53318C51.2505 2.63152 51.218 1.9853 50.7327 1.60945C50.0398 1.0816 48.6996 1.39446 46.0898 2.69026C44.3264 3.56767 42.0164 4.89361 39.2219 6.63176C34.9141 9.31176 30.7609 12.1633 30.0031 12.6861C29.1151 12.5896 28.235 12.4776 27.3628 12.3501C26.9289 12.2733 26.5975 12.2227 26.3862 12.1933C22.6078 11.584 18.8975 10.6185 15.3057 9.31025C18.3162 9.48966 22.7441 9.15534 27.2641 6.72199C27.8603 7.35951 28.7471 7.63554 29.5533 7.34328C30.6646 6.94218 31.1954 5.62782 30.7479 4.41529C30.3004 3.20277 29.0348 2.54053 27.9286 2.94131C26.8915 3.31782 26.3673 4.49314 26.672 5.64207C22.3761 7.96411 18.1512 8.25214 15.335 8.07068C12.3164 7.88302 10.2504 7.13674 10.0436 7.05963C4.14847 4.12756 1.21373 1.19815 1.18139 1.16518C1.05788 1.04668 0.893243 0.979383 0.721107 0.977049C0.54898 0.974714 0.382363 1.03752 0.255305 1.15262C0.160462 1.23324 0.0923581 1.34027 0.0598954 1.45971C0.0274405 1.57915 0.0321252 1.70545 0.0733474 1.82212C0.104094 1.9 0.151519 1.97034 0.212359 2.02833C0.337641 2.15546 2.76891 4.579 7.67262 7.259C9.59642 9.80065 11.6736 12.2249 13.8927 14.5187C18.6927 19.4358 22.6329 21.8658 25.6018 21.7405C26.2829 21.7121 27.1446 21.52 27.3759 20.7713C27.5661 20.1537 27.388 19.2143 24.6127 16.922C23.0878 15.6601 20.9104 14.0938 18.1387 12.2672C17.4413 11.8108 16.7427 11.3545 16.0554 10.9162C19.2492 11.9977 22.5273 12.8188 25.857 13.3714C25.8814 13.3793 25.9062 13.3857 25.9314 13.3905C25.939 13.3901 26.0256 13.4022 26.1746 13.4242C26.422 13.4638 26.6672 13.5098 26.9156 13.5469C26.9333 13.5458 26.9538 13.552 26.9717 13.5546C29.5142 14.0054 36.1004 15.4995 40.2918 19.3152C40.0502 19.863 40.0214 20.4795 40.211 21.0464C40.2922 21.2764 40.4206 21.4873 40.588 21.6658C40.7555 21.8444 40.9585 21.9867 41.1842 22.0839C41.4631 22.1936 41.7628 22.2425 42.0627 22.2271C42.3626 22.2118 42.6557 22.1326 42.922 21.995C43.4712 21.721 43.9153 21.2773 44.1869 20.7313ZM53.7333 4.29747C53.7168 4.1992 53.723 4.09849 53.7514 4.00286C53.7798 3.90722 53.8296 3.81916 53.8973 3.74524C53.976 3.67787 54.0679 3.62728 54.1672 3.59662C54.2665 3.56597 54.3711 3.55592 54.4745 3.56709C54.787 3.59724 55.0805 3.72879 55.3094 3.94127C55.4742 4.08841 55.6011 4.27237 55.6797 4.47787C55.7082 4.55413 55.728 4.63336 55.7385 4.71404C55.7546 4.81241 55.748 4.91313 55.7194 5.00874C55.6908 5.10434 55.6409 5.19238 55.5733 5.26634C55.4943 5.33312 55.4021 5.3829 55.3027 5.4125C55.2032 5.4421 55.0987 5.45088 54.9956 5.43827C54.6835 5.40802 54.3904 5.27643 54.162 5.06402C53.9335 4.86556 53.782 4.59457 53.7333 4.29747ZM46.2538 3.99279C48.6054 2.78668 49.5009 2.61129 49.8044 2.59998C49.7637 2.75454 49.7061 2.90427 49.6326 3.04652C48.5322 5.29296 44.8378 7.66517 38.9488 9.90482C37.0569 10.6241 35.2156 11.2228 33.7075 11.6772C35.3318 10.5923 37.4303 9.21454 39.5862 7.86693C42.2708 6.18804 44.514 4.88497 46.2538 3.99279ZM28.3609 4.09108C28.777 3.9404 29.3049 4.29113 29.5142 4.85769C29.7235 5.42426 29.5477 6.02968 29.1316 6.18036C28.7155 6.33104 28.1876 5.98031 27.9795 5.41367C27.7715 4.84702 27.9448 4.24176 28.3609 4.09108ZM53.428 15.6885C60.058 16.9539 61.8433 17.7725 62.3237 18.1112C62.2674 18.1384 62.201 18.1675 62.1084 18.2007C60.1262 18.9293 56.6257 18.2981 51.986 16.3761C50.7617 15.8687 49.6048 15.3309 48.6085 14.8368C50.0308 15.0747 51.7239 15.3645 53.428 15.6885ZM55.8632 11.005C62.3713 8.83566 64.3835 8.65227 64.9888 8.70219C64.954 8.75181 64.9084 8.81084 64.8484 8.882C63.5061 10.464 60.0958 11.6345 54.9718 12.2855C53.6203 12.4567 52.3135 12.5751 51.1755 12.6457C52.5495 12.1458 54.19 11.5658 55.8632 11.005ZM17.1547 13.1538C24.7268 18.1314 25.9024 19.8684 26.0821 20.3444C26.0922 20.3702 26.1002 20.3969 26.1059 20.4241C25.9398 20.4767 25.7664 20.5034 25.592 20.5034C23.0537 20.6107 19.35 18.2473 14.8793 13.6732C13.3347 12.0928 11.9455 10.4939 10.8786 9.20738C12.6188 10.2574 14.8965 11.67 17.1547 13.1538ZM41.7602 20.9491C41.3635 20.7814 41.2676 20.1703 41.5512 19.6132C41.8348 19.056 42.4041 18.7297 42.7995 18.8976C42.874 18.9318 42.9404 18.9811 42.9944 19.0423C43.0484 19.1035 43.0889 19.1752 43.1131 19.2528C43.1252 19.2853 43.1352 19.3185 43.1433 19.3521C43.2019 19.6526 43.1548 19.9641 43.0099 20.2347C42.7273 20.788 42.1544 21.117 41.7602 20.9491Z" fill="#C89F63"/>
</svg>
