<svg width="20" height="25" viewBox="0 0 20 25" fill="none" xmlns="http://www.w3.org/2000/svg">
<g id="Group 6763">
<path id="Rectangle 313 (Stroke)" fill-rule="evenodd" clip-rule="evenodd" d="M15 1.5H5C3.067 1.5 1.5 3.067 1.5 5V20C1.5 21.933 3.067 23.5 5 23.5H15C16.933 23.5 18.5 21.933 18.5 20V5C18.5 3.067 16.933 1.5 15 1.5ZM5 0C2.23858 0 0 2.23858 0 5V20C0 22.7614 2.23858 25 5 25H15C17.7614 25 20 22.7614 20 20V5C20 2.23858 17.7614 0 15 0H5Z" fill="#C89F63"/>
<path id="Line 49 (Stroke)" fill-rule="evenodd" clip-rule="evenodd" d="M14 21C14 21.5523 13.5523 22 13 22H7C6.44772 22 6 21.5523 6 21C6 20.4477 6.44772 20 7 20H13C13.5523 20 14 20.4477 14 21Z" fill="#C89F63"/>
</g>
</svg>
