<svg width="31" height="29" viewBox="0 0 31 29" fill="none" xmlns="http://www.w3.org/2000/svg">
<g id="Layer 4">
<path id="Vector" d="M30.9376 23.803C30.9376 23.4223 30.7442 23.2315 30.3618 23.216C30.2166 23.21 30.0713 23.216 29.8737 23.216C30.6806 22.3249 31.0502 21.34 30.9049 20.1928C30.7597 19.0455 30.1633 18.181 29.1982 17.5485C29.3013 17.4745 29.3933 17.4118 29.4809 17.3448C30.3807 16.6573 30.8826 15.7446 30.9316 14.6154C31.0218 12.5254 29.4027 10.8642 27.2766 10.8479C25.8443 10.8376 24.4143 10.8376 22.9866 10.8479C22.7537 10.8479 22.6781 10.7946 22.6815 10.5505C22.6953 9.4832 22.6901 8.41585 22.6858 7.3485C22.6858 6.86296 22.4521 6.67131 21.9812 6.74694C20.0831 7.03626 18.1844 7.32559 16.2852 7.61491C15.987 7.6596 15.9569 7.61491 15.9827 7.31413C15.9965 7.15428 16.1073 7.15858 16.2087 7.12678C16.7942 6.95223 17.2986 6.57545 17.6321 6.06362C17.9656 5.55178 18.1065 4.93815 18.0297 4.33209C17.839 2.66232 16.9349 1.35778 15.8315 0.170124C15.6114 -0.0679235 15.3158 -0.0524547 15.0838 0.193327C14.1445 1.1945 13.3796 2.30654 13.0213 3.65404C12.6818 4.93709 13.0127 6.03022 13.9296 6.71944C14.1874 6.9116 14.4789 7.05384 14.789 7.13881C15.0932 7.22475 14.9025 7.47569 14.9454 7.64843C14.9789 7.78507 14.9007 7.83319 14.7632 7.85468C12.815 8.14944 10.8677 8.45624 8.91948 8.75015C8.36862 8.83609 8.2483 8.95382 8.2483 9.50812C8.2483 11.22 8.2483 12.9319 8.2483 14.6438C8.2483 14.7486 8.27838 14.8603 8.20619 14.9875C7.87098 14.6547 7.50465 14.3549 7.11221 14.092C6.83377 13.9073 6.58713 13.903 6.30525 14.0843C4.88499 15.001 4.01644 16.2869 3.69962 17.942C3.6661 18.1199 3.6386 18.1724 3.44181 18.1354C2.98506 18.0561 2.51981 18.0376 2.05821 18.0804C1.70844 18.107 1.52196 18.2815 1.40079 18.596C0.97593 19.7096 0.911622 20.9284 1.21694 22.0804C1.52226 23.2325 2.18178 24.2595 3.10235 25.0164C3.18829 25.0878 3.27423 25.1625 3.41517 25.2743C2.92274 25.2743 2.50079 25.2794 2.07969 25.2743C1.38704 25.2631 0.692658 25.3086 0 25.2502V26.3382C0.329142 26.2814 0.66258 26.3382 0.991722 26.3098C1.1636 26.2969 1.26071 26.3562 1.33547 26.5186C1.53914 26.9561 1.78922 27.372 1.97313 27.8163C2.14501 28.2408 2.42001 28.3878 2.87806 28.3869C9.21167 28.3749 15.5459 28.372 21.8806 28.3783C21.9511 28.3783 22.0215 28.3783 22.092 28.3783C22.4925 28.3629 22.679 28.1807 22.6867 27.7768C22.6944 27.3729 22.6962 26.9707 22.6867 26.5685C22.6807 26.382 22.7202 26.3038 22.9308 26.3064C23.8761 26.3175 24.8214 26.3158 25.7667 26.3064C25.8353 26.2998 25.9042 26.3166 25.9619 26.3543C26.0197 26.3919 26.063 26.448 26.0847 26.5135C26.3296 27.0197 26.5866 27.5198 26.8341 28.0243C26.8788 28.1319 26.9554 28.2234 27.0535 28.2863C27.1516 28.3493 27.2667 28.3808 27.3832 28.3766C28.038 28.3766 28.6929 28.3843 29.3469 28.3766C29.7087 28.3706 29.9003 28.1652 29.9081 27.8043C29.9158 27.4433 29.9081 27.0996 29.9081 26.7472C29.9081 26.3279 29.9081 26.3279 30.3231 26.3175C30.7382 26.3072 30.9376 26.1233 30.9376 25.7039C30.9445 25.0697 30.9453 24.4346 30.9376 23.803ZM29.7259 21.5643C29.3142 22.5801 28.5425 23.1851 27.4408 23.1971C24.6521 23.2307 21.8626 23.2152 19.073 23.2109C18.5419 23.2109 18.0048 23.2693 17.478 23.149C16.8621 23.0126 16.3178 22.6545 15.9487 22.1429C15.5796 21.6313 15.4115 21.0018 15.4764 20.3743C15.5412 19.7468 15.8345 19.165 16.3004 18.7397C16.7663 18.3143 17.3723 18.0751 18.0031 18.0675C20.259 18.0538 22.514 18.0581 24.7698 18.0675C25.1783 18.0649 25.571 18.2246 25.8617 18.5116C26.1523 18.7985 26.3171 19.1892 26.3197 19.5976C26.3223 20.0061 26.1626 20.3988 25.8757 20.6895C25.5887 20.9801 25.198 21.1449 24.7896 21.1475C23.0777 21.1596 21.3658 21.1535 19.654 21.1475C19.2939 21.1475 19.0808 20.9439 19.0859 20.6319C19.0911 20.3199 19.3094 20.1257 19.6729 20.124C20.7608 20.124 21.848 20.1146 22.9385 20.1292C23.174 20.1292 23.2315 20.0639 23.2109 19.8456C23.1886 19.6067 23.2883 19.2861 23.1671 19.146C23.0236 18.9819 22.6953 19.0971 22.4478 19.0953C21.4913 19.0885 20.534 19.0842 19.5775 19.0953C18.7989 19.1048 18.1449 19.6969 18.0676 20.4325C17.9816 21.2489 18.45 21.939 19.2251 22.1418C19.3928 22.1775 19.5644 22.1911 19.7356 22.1822C21.3564 22.1822 22.978 22.1745 24.5988 22.1865C25.6576 22.1934 26.4894 21.7817 27.0008 20.8553C27.5078 19.9418 27.4391 19.0223 26.8659 18.1449C26.8574 18.1218 26.8516 18.0979 26.8487 18.0735C27.7038 18.0031 28.4669 18.1732 29.0977 18.7679C29.4742 19.1143 29.7363 19.5673 29.849 20.0664C29.9617 20.5655 29.9196 21.0871 29.7284 21.5617L29.7259 21.5643ZM25.8226 11.8843C26.0224 11.8837 26.2204 11.923 26.4049 11.9999C26.5893 12.0768 26.7566 12.1898 26.8968 12.3322C27.037 12.4746 27.1474 12.6435 27.2215 12.8291C27.2956 13.0148 27.3319 13.2133 27.3282 13.4131C27.3282 14.2536 26.6948 14.9497 25.8389 14.96C24.1201 14.9841 22.3954 14.972 20.6732 14.9669C20.338 14.9669 20.124 14.7486 20.1232 14.4513C20.1232 14.1359 20.3329 13.9425 20.6998 13.9408C21.7869 13.9408 22.8749 13.9331 23.9655 13.9451C24.1889 13.9451 24.2774 13.8978 24.2465 13.6666C24.213 13.42 24.3539 13.0891 24.1898 12.9456C24.0505 12.8245 23.73 12.9087 23.4894 12.9078C22.5131 12.9078 21.536 12.8975 20.5597 12.9155C20.2049 12.9261 19.865 13.0609 19.5994 13.2965C19.3338 13.5321 19.1593 13.8535 19.1065 14.2046C19.0505 14.5661 19.124 14.9357 19.3139 15.2482C19.5038 15.5608 19.7981 15.7963 20.1447 15.9131C20.3469 15.9751 20.5579 16.0041 20.7694 15.999C22.3808 15.999 23.993 15.9698 25.6026 16.0042C27.8412 16.0523 29.028 13.7629 27.9925 12.0802C27.9851 12.0618 27.9802 12.0424 27.9779 12.0227C27.9916 12.0072 28.0045 11.9909 28.0174 11.9754C29.2085 12.3011 30.0232 13.4707 29.8874 14.6627C29.7362 15.9921 28.7324 17.0002 27.4442 17.0148C24.9675 17.0423 22.4905 17.0423 20.0132 17.0148C18.6382 16.9993 17.5356 15.8159 17.539 14.4366C17.5425 13.0573 18.6184 11.9109 20.0003 11.886C21.9356 11.8577 23.8787 11.8697 25.8226 11.8843ZM14.9154 6.04053C14.7813 6.10413 14.6447 5.95459 14.5304 5.86866C13.9288 5.3874 13.8386 4.75146 13.9915 4.04334C14.2089 3.04474 14.7504 2.2163 15.3665 1.42653C15.4387 1.33458 15.4843 1.31224 15.5668 1.41966C16.28 2.34263 16.9143 3.3017 17.0088 4.51342C17.0569 5.13561 16.7149 5.75522 16.1924 6.01561C16.0446 6.08952 15.9698 6.0878 15.987 5.89702C15.9922 5.83686 15.987 5.77584 15.987 5.71569C15.987 5.17428 15.987 5.17428 15.4576 5.17428C14.9506 5.17428 14.954 5.17428 14.9489 5.67701C14.9532 5.80248 15.0133 5.99584 14.9154 6.04225V6.04053ZM4.68103 18.3451C4.88298 17.0045 5.50259 15.9526 6.55963 15.1585C6.57872 15.1393 6.60141 15.1241 6.62641 15.1137C6.65141 15.1033 6.67822 15.0979 6.70529 15.0979C6.73237 15.0979 6.75918 15.1033 6.78417 15.1137C6.80917 15.1241 6.83187 15.1393 6.85096 15.1585C7.35172 15.5239 7.7742 15.9859 8.09346 16.5173C8.41273 17.0487 8.62229 17.6386 8.70979 18.2523C8.73385 18.4053 8.7012 18.4835 8.54909 18.5479C7.91834 18.8152 7.34609 19.2035 6.86471 19.6909C6.74869 19.8069 6.6851 19.8267 6.55791 19.6995C6.06618 19.2082 5.48437 18.8164 4.84431 18.5453C4.73517 18.5006 4.63376 18.4603 4.68103 18.3451ZM10.2403 19.1443C11.257 19.024 11.1221 18.9226 11.281 19.9367C11.7107 22.697 9.67917 25.1376 6.89049 25.2648C6.44103 25.2854 6.44103 25.2854 6.33189 24.8575C6.1697 24.2227 6.14477 23.5607 6.25878 22.9155C6.37279 22.2704 6.6231 21.657 6.99301 21.1163C7.36293 20.5755 7.84393 20.1199 8.40391 19.7799C8.96389 19.4399 9.58996 19.2232 10.2403 19.1443ZM2.86602 23.235C2.05735 22.0318 1.86915 20.7187 2.25071 19.3205C2.29883 19.1486 2.37962 19.0842 2.56266 19.0876C3.18751 19.0862 3.80617 19.2113 4.38142 19.4553C4.95667 19.6993 5.4766 20.0571 5.90994 20.5073C6.00963 20.6078 6.06119 20.6792 5.96752 20.8347C5.18806 22.1238 4.98955 23.5125 5.29291 24.9812C5.27665 24.9924 5.26167 25.0054 5.24822 25.0199C4.229 24.726 3.44782 24.1021 2.86602 23.235ZM10.5566 27.2543C10.5059 27.3591 10.4165 27.3471 10.3263 27.3471C7.90971 27.3471 5.49343 27.3471 3.07743 27.3471C3.0232 27.355 2.96788 27.344 2.92088 27.3158C2.87388 27.2876 2.8381 27.244 2.81962 27.1924C2.69071 26.9114 2.54548 26.6381 2.38993 26.3236H11.0146C10.8539 26.651 10.7027 26.9518 10.5566 27.2543ZM14.8268 27.3462C13.8704 27.3462 12.913 27.3462 11.9565 27.3462C11.7511 27.3462 11.691 27.3462 11.7735 27.0944C11.9814 26.455 12.3613 26.1672 13.0359 26.3098C13.3625 26.3794 13.4295 26.2239 13.4183 25.9205C13.396 25.2751 13.4114 25.2743 12.7781 25.2743H10.0453C10.0762 25.1462 10.181 25.1144 10.2515 25.0568C11.1845 24.3078 11.8576 23.2836 12.1749 22.13C12.4923 20.9764 12.4378 19.7521 12.0193 18.6313C11.886 18.2738 11.6755 18.0916 11.2939 18.071C10.8417 18.0382 10.3872 18.0581 9.93956 18.1303C9.77714 18.1595 9.73846 18.1191 9.71182 17.9653C9.63784 17.5187 9.50611 17.0836 9.31995 16.671C9.29274 16.6072 9.27899 16.5385 9.27956 16.4691C9.27956 14.3146 9.28729 12.1602 9.27956 10.0057C9.27956 9.79085 9.33198 9.72296 9.55026 9.69031C12.2444 9.28468 14.9377 8.8653 17.6284 8.44937C18.8805 8.25687 20.1335 8.07124 21.3839 7.86671C21.6047 7.83061 21.658 7.87186 21.6546 8.09272C21.6426 8.91859 21.6391 9.74445 21.6546 10.5695C21.6597 10.8127 21.5687 10.8487 21.3615 10.8436C20.8889 10.8307 20.4162 10.8187 19.9419 10.8505C18.4388 10.9502 17.3483 11.6927 16.7768 13.0848C16.2053 14.477 16.4674 15.7446 17.4411 16.8764C17.4806 16.9211 17.5193 16.9667 17.5794 17.038C14.6575 17.5235 13.3839 20.9052 15.4757 23.2135C15.3038 23.2135 15.156 23.2083 15.0099 23.2135C14.6257 23.2298 14.4384 23.418 14.4358 23.8004C14.4315 24.4252 14.4358 25.0491 14.4358 25.6739C14.4358 26.1336 14.6077 26.3046 15.0778 26.3141C15.4654 26.3218 15.4654 26.3218 15.4654 26.7137C15.4688 27.3462 15.4688 27.3462 14.8268 27.3462ZM17.8587 27.0884C17.7848 27.2809 17.6731 27.3686 17.454 27.3462C17.2028 27.3286 16.9506 27.3286 16.6994 27.3462C16.5379 27.354 16.4854 27.2964 16.4983 27.14C16.5207 26.8718 16.384 26.4886 16.5507 26.3622C16.7175 26.2359 17.087 26.3321 17.3672 26.3321C17.6404 26.3459 18.0263 26.1826 18.1578 26.3777C18.2609 26.535 17.9541 26.8409 17.8587 27.0918V27.0884ZM20.8786 27.3462H18.8857C19.0576 27.0025 19.2045 26.7051 19.3523 26.4009C19.3961 26.3107 19.4709 26.3107 19.5543 26.3107C20.1859 26.3107 20.8184 26.3158 21.4501 26.3107C21.6039 26.3107 21.6529 26.3519 21.6589 26.5126C21.689 27.3471 21.6941 27.3462 20.8829 27.3462H20.8786ZM28.8304 27.2921C28.4987 27.4459 28.0836 27.3402 27.7029 27.3376C27.6685 27.3376 27.6238 27.2792 27.6032 27.2379C27.4537 26.9475 27.3084 26.6536 27.1383 26.3141C27.7063 26.3141 28.2262 26.3141 28.7462 26.3141C28.851 26.3141 28.8923 26.3596 28.882 26.4602C28.882 26.4903 28.882 26.5212 28.882 26.5513C28.8613 26.8108 28.9928 27.2164 28.8304 27.2921ZM29.9192 24.5764C29.8952 25.2786 29.9123 25.2794 29.2171 25.2794H22.6962C20.3816 25.2794 18.067 25.2794 15.7524 25.2794C15.5418 25.2794 15.4301 25.2528 15.4671 25.007C15.504 24.7612 15.3605 24.4329 15.5255 24.2885C15.6647 24.1665 15.9836 24.2439 16.2233 24.2439C20.6715 24.2439 25.1196 24.2416 29.5677 24.237C29.829 24.2396 29.9295 24.2851 29.9192 24.5764Z" fill="white"/>
<path id="Vector_2" d="M11.3028 10.8908C11.1456 10.7352 10.8233 10.8676 10.5758 10.8383C10.3558 10.8126 10.312 10.9045 10.318 11.1082C10.3283 12.1334 10.318 13.1587 10.318 14.1839C10.318 15.002 10.318 14.996 11.1378 14.9762C11.314 14.9762 11.357 14.9169 11.3544 14.7511C11.3458 14.1375 11.3544 13.5248 11.3544 12.912C11.3544 12.4823 11.3604 12.0475 11.3544 11.6152C11.3441 11.3669 11.4584 11.0455 11.3028 10.8908Z" fill="white"/>
<path id="Vector_3" d="M10.8383 16.001C10.3175 16.001 10.3175 16.001 10.3175 16.5097C10.3175 17.0322 10.3175 17.0322 10.8262 17.0322C11.3504 17.0322 11.3504 17.0322 11.3504 16.5226C11.3504 16.013 11.3504 16.001 10.8383 16.001Z" fill="white"/>
</g>
</svg>
